# 3ds Max Wavefront OBJ Exporter v0.97b - (c)2007 guruware
# File Created: 20.12.2015 19:33:40

#
# object Box001
#

v  0.0000 0.0000 -0.0000
v  0.3136 0.3578 0.3640
v  -0.3136 0.3578 0.2873
v  0.4551 0.7156 0.4236
v  -0.3704 0.7156 0.3963
v  0.3912 1.0735 0.5068
v  -0.3912 1.0735 0.4550
v  0.3923 1.4313 0.3913
v  -0.3923 1.4313 0.3354
v  0.1758 1.7891 0.2041
v  -0.1966 1.7891 0.2087
v  0.0000 2.1469 -0.0000
v  0.3136 0.3578 -0.3468
v  0.4173 0.7156 -0.4377
v  0.3912 1.0735 -0.4559
v  0.3923 1.4313 -0.3913
v  0.2744 1.7891 -0.2041
v  -0.2878 0.3578 -0.3218
v  -0.4551 0.7156 -0.4377
v  -0.3912 1.0735 -0.5068
v  -0.3923 1.4313 -0.3913
v  -0.2401 1.7891 -0.2464
# 22 vertices

vn -0.0901 -0.6704 0.7365
vn -0.1206 -0.1164 0.9859
vn -0.0315 -0.2958 0.9547
vn -0.0321 -0.2319 0.9722
vn -0.0652 -0.1651 0.9841
vn -0.0629 0.3067 0.9497
vn -0.0674 0.3159 0.9464
vn -0.0640 0.4320 0.8996
vn 0.0117 0.3281 0.9446
vn 0.0108 0.4994 0.8663
vn 0.7520 -0.6591 -0.0000
vn 0.9604 -0.2785 -0.0000
vn 0.9315 -0.3615 -0.0408
vn 0.9965 0.0707 -0.0436
vn 0.9844 0.1758 -0.0000
vn 1.0000 -0.0033 -0.0000
vn 0.9498 0.3130 -0.0000
vn 0.7922 0.5795 0.1914
vn 0.8293 0.5217 0.2004
vn -0.0304 -0.6818 -0.7309
vn -0.0393 -0.3244 -0.9451
vn 0.0000 -0.2462 -0.9692
vn 0.0000 -0.1896 -0.9819
vn 0.0649 -0.0459 -0.9968
vn 0.0618 0.3068 -0.9498
vn 0.0000 0.1776 -0.9841
vn 0.0000 0.3752 -0.9269
vn 0.0720 0.4809 -0.8738
vn 0.0694 0.5338 -0.8427
vn -0.7644 -0.6439 -0.0324
vn -0.9887 -0.1441 -0.0419
vn -0.9132 -0.3969 0.0927
vn -0.9921 -0.0741 0.1007
vn -0.9844 0.1758 -0.0000
vn -1.0000 -0.0033 -0.0000
vn -0.8773 0.4799 -0.0000
vn -0.9290 0.3592 0.0889
vn -0.8527 0.5160 0.0816
# 38 vertex normals

vt 0.5000 0.0000 0.0000
vt 1.0000 0.1667 0.0000
vt 0.0000 0.1667 0.0000
vt 1.0000 0.3333 0.0000
vt 0.0000 0.3333 0.0000
vt 1.0000 0.5000 0.0000
vt 0.0000 0.5000 0.0000
vt 1.0000 0.6667 0.0000
vt 0.0000 0.6667 0.0000
vt 1.0000 0.8333 0.0000
vt 0.0000 0.8333 0.0000
vt 0.5000 1.0000 0.0000
# 12 texture coords

g Box001
f 1/1/1 2/2/1 3/3/1 
f 3/3/2 2/2/2 4/4/2 
f 4/4/3 5/5/3 3/3/3 
f 5/5/4 4/4/4 6/6/4 
f 6/6/5 7/7/5 5/5/5 
f 7/7/6 6/6/6 8/8/6 
f 8/8/7 9/9/7 7/7/7 
f 9/9/8 8/8/8 10/10/8 
f 10/10/9 11/11/9 9/9/9 
f 11/11/10 10/10/10 12/12/10 
f 1/1/11 13/2/11 2/3/11 
f 2/3/12 13/2/12 14/4/12 
f 14/4/13 4/5/13 2/3/13 
f 4/5/14 14/4/14 15/6/14 
f 15/6/15 6/7/15 4/5/15 
f 6/7/16 15/6/16 16/8/16 
f 16/8/16 8/9/16 6/7/16 
f 8/9/17 16/8/17 17/10/17 
f 17/10/18 10/11/18 8/9/18 
f 10/11/19 17/10/19 12/12/19 
f 1/1/20 18/2/20 13/3/20 
f 13/3/21 18/2/21 19/4/21 
f 19/4/22 14/5/22 13/3/22 
f 14/5/23 19/4/23 20/6/23 
f 20/6/24 15/7/24 14/5/24 
f 15/7/25 20/6/25 21/8/25 
f 21/8/26 16/9/26 15/7/26 
f 16/9/27 21/8/27 22/10/27 
f 22/10/28 17/11/28 16/9/28 
f 17/11/29 22/10/29 12/12/29 
f 1/1/30 3/2/30 18/3/30 
f 18/3/31 3/2/31 5/4/31 
f 5/4/32 19/5/32 18/3/32 
f 19/5/33 5/4/33 7/6/33 
f 7/6/34 20/7/34 19/5/34 
f 20/7/35 7/6/35 9/8/35 
f 9/8/35 21/9/35 20/7/35 
f 21/9/36 9/8/36 11/10/36 
f 11/10/37 22/11/37 21/9/37 
f 22/11/38 11/10/38 12/12/38 
# 40 faces

